<?xml version="1.0" standalone="no"?>
<!DOCTYPE svg PUBLIC "-//W3C//DTD SVG 20010904//EN"
 "http://www.w3.org/TR/2001/REC-SVG-20010904/DTD/svg10.dtd">
<svg version="1.0" xmlns="http://www.w3.org/2000/svg"
 width="700.000000pt" height="700.000000pt" viewBox="0 0 700.000000 700.000000"
 preserveAspectRatio="xMidYMid meet">
<metadata>
Created by potrace 1.14, written by Peter Selinger 2001-2017
</metadata>
<g transform="translate(0.000000,700.000000) scale(0.100000,-0.100000)"
fill="#000000" stroke="none">
<path d="M3502 4688 c5 -362 9 -390 83 -513 68 -114 90 -131 993 -784 123 -88
228 -161 233 -161 5 0 9 124 9 293 0 329 -7 382 -63 494 -68 134 -46 115 -840
700 -219 161 -403 293 -409 293 -6 0 -8 -112 -6 -322z"/>
<path d="M2185 4882 c-3 -9 -3 -145 0 -302 7 -317 14 -361 72 -480 67 -138 81
-149 1365 -1062 647 -461 1182 -838 1188 -838 8 0 11 86 8 323 -4 317 -4 323
-29 388 -37 96 -73 154 -138 218 -31 31 -208 164 -392 295 -184 132 -557 399
-829 595 -924 662 -1205 863 -1222 872 -11 6 -18 4 -23 -9z"/>
<path d="M2180 3567 c0 -182 4 -328 11 -359 20 -97 83 -213 157 -286 41 -42
265 -210 586 -442 285 -206 529 -381 542 -388 l24 -13 0 294 c0 260 -2 303
-20 371 -26 103 -80 202 -145 269 -41 42 -1002 759 -1128 842 l-27 17 0 -305z"/>
</g>
</svg>
